# xmcd CD database file
#
# Track frame offsets:
#	150
#	13525
#	27350
#	38633
#	49439
#	69474
#	86122
#	95118
#	109797
#	124260
#
# Disc length: 1857 seconds
#
# Revision: 0
# Processed by: cddbd v1.4PL0 Copyright (c) Steve Scherf et al.
# Submitted via: CDex 1.40Release
#
DISCID=87073f0a
DTITLE=Eleven Hundred Springs - Straighter Line
DYEAR=2001
DGENRE=Country
TTITLE0=Sad And Lonesome Song
TTITLE1=Long-Haired, Tattooed Hippie Freaks
TTITLE2=Thunderbird Will Do Just Fine
TTITLE3=It Don't Mean A Thing To You
TTITLE4=Bird On A Wire
TTITLE5=Good Times, Hard Livin'
TTITLE6=Hey Jukebox
TTITLE7=See You In The Next Life
TTITLE8=The Ballad Of Anna Stone
TTITLE9=A Straighter Line
EXTD=YEAR: 2001 ID3G: 2
EXTT0=
EXTT1=
EXTT2=
EXTT3=
EXTT4=
EXTT5=
EXTT6=
EXTT7=
EXTT8=
EXTT9=
PLAYORDER=
